:SAMPLES-PER-SECOND 30
:FULLY-SPECIFIED
:DEGREES
1040
root  30.3975 40.0012 48.3662 176.429 4.93454 -179.588
RightUpLeg  -4.40486 -12.2705 -7.7472
RightLeg  12.7403 -7.33188 1.95369
RightFoot  -2.86203 -0.345904 4.39789
RightToes  2.91037e-010 0 -3.6325e-017
Spine  24.3721 0.110474 4.81287
Spine1  4.43272 1.31215 -0.445154
HEad  -13.7465 1.26744 -8.01011
LeftShoulder1  6.64119 -13.387 -33.2688
LeftArm  -23.0781 18.8294 -18.1179
LeftForeArm  22.807 -11.6504 -0.681821
LeftHand  -0.244104 0.0205437 5.32207
RightShoulder  3.83862 7.94081 27.5166
RightArm  -23.4824 -13.5972 15.7959
RightForeArm  -10.5507 8.43984 3.27475
RightHand  -3.24225 8.35326 -27.2048
LeftUpLeg  -5.61694 9.33316 1.79834
LeftLeg  18.1856 5.29389 2.25846
LeftFoot  -8.23987 0.0182393 1.13228
LeftToes  -1.10052e-010 1.3781e-010 -2.1811e-011
1041
root  30.1088 40.1025 48.0871 175.636 4.87526 179.947
RightUpLeg  -2.91196 -12.622 -8.71901
RightLeg  12.1602 -6.68037 1.54707
RightFoot  -2.70744 -0.395173 4.98788
RightToes  2.91037e-010 0 -3.6325e-017
Spine  22.8793 0.2047 2.69018
Spine1  3.24668 0.690867 0.559787
HEad  -11.5558 2.63717 -7.63148
LeftShoulder1  5.685 -12.1445 -30.2784
LeftArm  -23.3571 21.1203 -17.1472
LeftForeArm  22.532 -11.8452 -0.400091
LeftHand  -0.244104 0.0205437 5.32207
RightShoulder  3.20305 6.89429 24.6747
RightArm  -23.8801 -14.1312 13.5423
RightForeArm  -12.1054 8.18467 3.09536
RightHand  -3.3981 8.77732 -27.6416
LeftUpLeg  -3.25898 10.7607 1.28302
LeftLeg  16.0375 4.31925 1.47689
LeftFoot  -7.8598 0.00111962 1.52655
LeftToes  -1.10052e-010 1.3781e-010 -2.1811e-011
1042
root  29.8336 40.1756 47.8684 175.271 4.14325 179.189
RightUpLeg  -2.30074 -13.237 -9.83186
RightLeg  12.4367 -6.33803 0.759133
RightFoot  -3.121 -0.402247 5.29811
RightToes  2.91037e-010 0 -3.6325e-017
Spine  21.4223 0.162898 0.496852
Spine1  1.92267 -0.00402855 1.54828
HEad  -9.696 3.10511 -6.87612
LeftShoulder1  4.89814 -11.2295 -27.1308
LeftArm  -22.9232 22.5959 -15.8087
LeftForeArm  22.8126 -11.5477 -0.214774
LeftHand  -0.244104 0.0205437 5.32207
RightShoulder  2.63172 5.85303 21.8403
RightArm  -23.3699 -14.6537 11.1394
RightForeArm  -12.2023 8.32633 3.13736
RightHand  -3.51305 9.18167 -27.7788
LeftUpLeg  -1.71701 10.6039 0.531264
LeftLeg  14.1934 4.16344 0.469897
LeftFoot  -6.97015 -0.0174115 1.54919
LeftToes  -1.10052e-010 1.3781e-010 -2.1811e-011
1043
root  29.5435 40.2072 47.6747 174.995 3.35728 178.586
RightUpLeg  -2.02315 -13.8962 -10.7426
RightLeg  13.3524 -6.76602 -0.452418
RightFoot  -4.11688 -0.37757 5.53672
RightToes  2.91037e-010 0 -3.6325e-017
Spine  20.2509 0.0605715 -0.689167
Spine1  0.427744 -0.329657 1.58377
HEad  -7.59194 2.86528 -5.98934
LeftShoulder1  4.26671 -10.7087 -23.7682
LeftArm  -22.0891 23.4503 -14.2947
LeftForeArm  22.9322 -11.0499 -0.154424
LeftHand  -0.244104 0.0205437 5.32207
RightShoulder  2.06732 4.68347 18.7472
RightArm  -22.498 -15.3968 8.83098
RightForeArm  -11.6508 8.34453 3.15988
RightHand  -3.70593 9.70392 -28.2583
LeftUpLeg  -0.23943 9.25645 -0.10367
LeftLeg  12.3512 4.71719 -0.728615
LeftFoot  -6.49373 -0.0461987 2.02097
LeftToes  -1.10052e-010 1.3781e-010 -2.1811e-011
1044
root  29.2512 40.2129 47.4809 174.568 3.15434 178.317
RightUpLeg  -1.9312 -14.576 -11.1981
RightLeg  15.1273 -7.82778 -1.93951
RightFoot  -5.38953 -0.326371 5.55766
RightToes  2.91037e-010 0 -3.6325e-017
Spine  19.3332 0.131597 -0.87559
Spine1  -0.856598 -0.179784 0.931081
HEad  -5.40173 2.39371 -5.34216
LeftShoulder1  3.64955 -10.1513 -20.2667
LeftArm  -22.1082 24.0018 -13.0608
LeftForeArm  22.9693 -11.2332 -0.0709781
LeftHand  -0.244104 0.0205437 5.32207
RightShoulder  1.52685 3.3975 15.353
RightArm  -21.9318 -15.9012 6.78793
RightForeArm  -11.886 8.0963 3.09935
RightHand  -4.08702 10.533 -29.4772
LeftUpLeg  1.28849 7.88596 -0.331471
LeftLeg  10.9603 5.86373 -1.94802
LeftFoot  -6.64575 -0.0700238 2.68376
LeftToes  -1.10052e-010 1.3781e-010 -2.1811e-011
